<?xml version="1.0" standalone="no"?>
<!DOCTYPE svg PUBLIC "-//W3C//DTD SVG 20010904//EN"
 "http://www.w3.org/TR/2001/REC-SVG-20010904/DTD/svg10.dtd">
<svg version="1.0" xmlns="http://www.w3.org/2000/svg"
 width="889.000000pt" height="947.000000pt" viewBox="0 0 889.000000 947.000000"
 preserveAspectRatio="xMidYMid meet">

<g transform="translate(0.000000,947.000000) scale(0.100000,-0.100000)"
fill="#000000" stroke="none">
<path d="M0 4735 c0 -3150 3 -4735 10 -4735 6 0 10 75 10 205 l0 205 63 0 c59
1 421 16 571 24 117 7 298 27 368 42 37 8 82 14 100 14 18 0 81 7 140 17 l106
17 64 -31 c34 -17 81 -39 103 -49 22 -10 43 -20 47 -22 4 -2 1 8 -5 22 -7 14
-27 33 -44 41 -18 9 -33 20 -33 24 0 5 21 11 46 15 117 16 160 2 209 -64 28
-39 33 -80 9 -80 -8 0 -45 16 -81 35 -36 19 -68 33 -71 30 -2 -2 10 -17 29
-32 18 -15 40 -35 48 -44 82 -86 154 -114 167 -64 9 37 -4 94 -33 143 -13 24
-23 46 -20 48 9 9 86 -78 105 -119 28 -60 141 -161 220 -196 12 -6 22 -15 22
-21 0 -7 21 -8 61 -4 60 6 62 6 56 -15 -3 -12 0 -21 5 -21 17 0 118 -50 118
-58 0 -9 53 -36 99 -51 39 -13 1425 -16 1482 -4 34 7 33 8 -16 14 -31 3 -53 2
-57 -5 -4 -6 -10 -7 -13 -4 -4 4 5 19 19 35 l26 27 47 -18 c63 -25 110 -31
136 -18 50 25 101 42 126 42 20 0 23 2 11 10 -23 15 16 25 45 12 18 -9 31 -8
51 3 40 20 56 9 54 -39 -1 -22 -1 -47 -1 -53 1 -10 284 -13 1381 -13 1220 0
1380 2 1380 15 0 8 4 15 9 15 5 0 14 -7 21 -15 11 -13 118 -15 856 -15 583 0
844 3 844 10 0 19 -27 64 -50 85 -29 26 -60 88 -60 120 0 30 5 31 45 7 17 -10
38 -21 48 -25 16 -6 17 219 17 4633 l0 4640 -4445 0 -4445 0 0 -4735z m1554
4633 c-4 -22 -15 -49 -26 -60 -10 -10 -18 -27 -18 -37 0 -11 -5 -23 -11 -27
-7 -4 -9 -22 -6 -45 7 -54 -6 -101 -37 -132 -14 -14 -26 -30 -26 -35 0 -6 -11
-13 -25 -16 -15 -4 -27 -16 -31 -31 -3 -14 -10 -25 -15 -25 -12 0 -79 -66 -79
-78 0 -6 -8 -13 -19 -17 -10 -3 -18 -11 -18 -18 1 -30 -4 -44 -15 -45 -26 -2
-110 -22 -119 -28 -5 -3 -7 -10 -4 -15 4 -5 0 -9 -9 -9 -8 0 -17 6 -19 13 -4
9 -8 9 -15 -1 -5 -8 -22 -12 -38 -10 -26 3 -29 8 -40 63 -7 33 -10 71 -7 84 5
19 3 23 -10 18 -39 -15 -66 81 -29 102 13 8 14 13 4 19 -10 7 -10 17 2 53 16
47 14 115 -3 132 -6 6 -11 19 -11 29 0 10 -4 27 -10 38 -5 11 -14 29 -20 40
-5 11 -10 33 -10 50 l0 30 335 0 335 0 -6 -42z m1810 26 c10 -26 -1 -32 -58
-33 -54 0 -54 0 -42 24 9 21 18 25 52 25 29 0 44 -5 48 -16z m236 6 c0 -18
-49 -58 -78 -62 -15 -3 -34 -8 -42 -12 -9 -3 -24 0 -35 8 -18 13 -18 15 11 44
26 27 36 31 87 32 33 0 57 -4 57 -10z m101 -4 c-6 -7 -9 -20 -5 -29 7 -20 -12
-57 -31 -57 -21 0 -28 37 -13 70 9 21 20 30 37 30 19 0 21 -3 12 -14z m459 6
c0 -22 -34 -52 -59 -52 -18 0 -39 -13 -66 -40 -38 -38 -64 -47 -99 -34 -9 3
-16 12 -16 20 0 21 60 84 94 99 33 14 146 20 146 7z m574 -33 c-8 -23 -21 -48
-29 -56 -8 -8 -15 -23 -15 -33 0 -10 -3 -25 -6 -33 -4 -11 4 -17 25 -22 36 -8
71 -48 71 -81 0 -13 11 -30 26 -42 22 -15 26 -24 20 -45 -6 -24 -11 -27 -47
-27 -22 0 -60 -5 -85 -11 -54 -14 -77 -2 -57 30 11 17 7 19 -49 25 -55 7 -59
9 -45 24 8 9 20 45 27 79 7 34 21 70 31 79 13 11 17 24 13 41 -4 13 -1 30 6
38 11 14 7 15 -31 13 -43 -3 -44 -2 -47 30 l-3 32 104 0 105 0 -14 -41z m1050
26 c-7 -18 -45 -20 -62 -3 -9 9 -18 8 -39 -1 -28 -13 -28 -13 -6 -22 12 -4 28
-17 35 -29 7 -11 19 -20 26 -20 15 0 75 -31 80 -41 1 -3 14 -4 27 -1 35 6 56
-4 48 -24 -4 -11 -15 -15 -39 -12 -40 5 -43 -8 -15 -60 15 -30 19 -32 30 -18
17 21 60 21 68 0 3 -8 1 -26 -5 -39 -9 -19 -7 -26 13 -45 15 -14 24 -17 27 -9
3 9 9 9 27 0 20 -11 22 -18 18 -59 -3 -26 -8 -59 -12 -74 -7 -26 -5 -28 21
-26 16 1 35 6 41 11 32 24 60 -27 29 -52 -8 -7 -18 -26 -21 -42 -7 -32 -19
-36 -41 -14 -9 8 -26 15 -40 15 -19 0 -24 5 -24 25 0 21 -5 25 -30 25 -26 0
-30 4 -30 26 0 23 -3 25 -25 20 -21 -5 -25 -2 -30 21 -4 16 -11 37 -17 48 -7
11 -18 34 -26 50 -8 17 -16 31 -17 33 -1 1 -15 -4 -30 -12 -36 -19 -58 -10
-51 20 8 31 -2 54 -24 54 -10 0 -20 4 -22 9 -1 5 -23 0 -48 -12 l-45 -22 0
-55 c-1 -30 -7 -74 -15 -98 -12 -38 -12 -45 3 -59 19 -19 47 -10 47 15 0 10 9
27 21 38 11 10 18 26 16 35 -3 11 2 19 14 22 12 3 19 0 19 -10 0 -8 4 -11 10
-8 16 10 50 -14 50 -35 0 -11 -12 -26 -28 -34 -16 -8 -34 -22 -41 -30 -12 -14
-9 -16 20 -17 19 0 50 -6 69 -12 33 -11 35 -15 32 -50 -3 -30 1 -43 21 -61 13
-12 28 -30 34 -40 8 -15 14 -16 31 -7 39 21 55 14 50 -21 -3 -18 -8 -41 -13
-50 -4 -10 -3 -18 2 -18 5 0 21 25 36 55 28 58 45 69 54 35 3 -11 14 -20 24
-20 28 0 34 -26 14 -56 -18 -28 -14 -54 8 -54 8 0 20 -7 27 -15 19 -23 31 -18
24 11 -5 18 0 34 15 55 12 16 21 35 20 42 -4 30 3 46 26 68 13 13 25 35 25 48
0 30 36 71 62 71 46 0 57 -17 52 -76 -3 -31 -11 -68 -19 -83 -12 -25 -12 -30
3 -45 16 -16 16 -18 -8 -37 -17 -14 -21 -22 -12 -26 6 -2 12 -11 12 -18 0 -10
-16 -15 -52 -17 -52 -3 -53 -3 -50 -33 5 -56 3 -88 -8 -99 -18 -18 -11 -44 15
-50 14 -4 30 -4 35 -1 6 4 20 -10 31 -30 17 -29 27 -35 48 -33 20 2 27 9 29
31 2 19 9 27 23 27 15 0 19 -5 15 -17 -7 -24 13 -48 47 -57 27 -6 28 -8 14
-29 -8 -12 -25 -27 -38 -34 l-24 -12 31 -7 c44 -9 58 -42 34 -79 -23 -36 -12
-63 38 -90 47 -26 60 -70 36 -120 -16 -35 -16 -36 10 -60 22 -20 27 -33 24
-63 -3 -36 -5 -38 -58 -53 -59 -18 -189 -41 -230 -41 -60 -1 -224 24 -258 38
-20 9 -58 22 -84 30 -26 8 -50 19 -54 25 -7 13 16 119 26 119 3 0 22 14 41 31
19 17 51 38 71 47 48 21 63 48 48 87 -14 38 -36 62 -81 90 -33 21 -37 29 -42
78 -3 31 -10 65 -17 77 l-11 21 -19 -23 c-29 -36 -54 -14 -58 49 -2 41 -7 52
-22 56 -30 8 -26 47 4 47 35 0 44 35 17 64 -12 12 -21 35 -21 50 0 22 -4 27
-22 26 -44 -4 -49 -1 -42 25 3 14 2 25 -4 25 -17 0 -112 103 -112 122 0 11 -7
18 -19 18 -11 0 -23 5 -26 10 -3 6 -19 10 -34 10 -21 0 -31 -7 -42 -32 -11
-26 -22 -34 -54 -40 -43 -9 -75 -38 -75 -69 0 -23 68 -64 135 -80 64 -16 87
-37 109 -99 18 -49 18 -50 -4 -94 -15 -31 -30 -48 -52 -55 -53 -19 -70 -15
-181 41 -14 7 -20 3 -30 -20 -16 -38 -62 -92 -79 -92 -8 0 -19 -5 -26 -12 -9
-9 -12 -9 -12 1 0 9 -8 11 -24 7 -23 -6 -25 -4 -24 36 0 24 7 54 16 68 10 16
17 50 18 90 1 36 7 78 13 93 18 47 14 107 -9 125 -27 22 -38 87 -18 110 25 29
29 53 17 113 -6 32 -9 69 -5 83 14 55 87 58 144 6 40 -37 76 -47 107 -30 21
11 36 35 92 142 8 15 18 30 24 33 5 4 9 15 9 26 0 11 18 39 41 64 35 38 40 48
34 75 -4 16 -10 30 -14 30 -14 0 -101 -99 -101 -115 0 -24 -17 -17 -24 10 -8
32 13 82 54 128 l32 37 94 0 c79 0 92 -2 88 -15z m956 11 c0 -2 -12 -27 -26
-55 -26 -49 -50 -70 -41 -33 3 9 8 34 12 55 5 31 10 37 30 37 14 0 25 -2 25
-4z m-3856 -29 c9 -7 19 -25 20 -41 2 -16 8 -31 13 -35 5 -3 26 -19 46 -34 20
-16 41 -26 47 -22 8 5 11 -1 10 -16 -4 -46 -2 -49 40 -45 52 4 70 21 70 65 0
30 6 40 39 64 46 32 58 33 90 6 22 -18 23 -22 11 -44 -7 -14 -17 -25 -21 -25
-5 0 -16 -15 -25 -32 -27 -53 -78 -100 -110 -102 -35 -2 -65 -23 -80 -56 -32
-69 -44 -99 -44 -112 0 -7 -5 -30 -11 -51 -9 -34 -12 -37 -37 -31 -15 4 -33
11 -39 17 -20 15 -43 -11 -43 -46 0 -18 -9 -40 -22 -54 -35 -37 -98 -26 -98
17 0 9 -11 22 -24 28 -25 11 -45 58 -21 48 7 -2 25 1 39 7 21 10 24 18 22 52
-2 22 -6 56 -10 75 -6 33 -4 38 43 78 27 23 56 42 64 42 8 0 25 9 38 19 23 19
23 20 6 39 -10 11 -41 26 -68 32 -48 12 -49 13 -49 49 0 25 7 44 20 56 11 10
20 26 20 35 0 32 32 41 64 17z m1428 -31 c96 -77 108 -89 108 -106 0 -11 -4
-21 -9 -24 -4 -3 -11 -34 -14 -68 -3 -35 -9 -76 -12 -93 -6 -26 -2 -32 24 -48
18 -10 34 -32 42 -55 7 -20 23 -56 35 -80 13 -24 26 -59 30 -78 7 -40 17 -47
59 -48 22 -1 30 -5 29 -18 -1 -14 6 -18 31 -18 19 0 40 -7 48 -15 14 -13 19
-13 44 0 47 25 63 20 63 -19 0 -24 7 -39 20 -49 11 -8 34 -42 52 -77 24 -48
29 -67 20 -79 -5 -9 -16 -14 -24 -12 -7 2 -30 5 -50 8 -53 8 -61 22 -56 98 2
38 0 65 -6 65 -5 0 -17 7 -25 14 -9 8 -21 12 -26 8 -19 -14 -45 -74 -45 -105
0 -31 -24 -67 -44 -67 -20 0 -37 39 -26 59 15 29 -35 104 -61 91 -44 -24 -56
3 -32 71 14 39 15 51 5 61 -10 10 -17 7 -37 -17 -20 -25 -27 -28 -42 -19 -13
8 -18 24 -18 59 0 46 -1 47 -41 64 -56 22 -96 56 -92 78 1 10 -1 24 -5 31 -6
8 -2 12 12 12 29 0 63 48 59 84 -3 28 -6 31 -33 29 -16 -1 -45 -3 -62 -4 -23
-1 -33 -6 -34 -17 -1 -10 -2 -26 -3 -36 -3 -42 -36 -26 -88 45 -10 13 -18 28
-18 34 0 34 60 47 96 21 17 -13 21 -12 37 1 21 20 23 45 2 37 -21 -8 -45 14
-45 41 0 14 7 25 20 28 24 6 26 29 5 47 -23 19 -19 65 8 83 33 24 51 21 99
-17z m3418 25 c0 -15 -28 -33 -40 -26 -8 5 -8 11 1 21 13 15 39 19 39 5z
m-4620 -96 c0 -8 -7 -15 -15 -15 -16 0 -20 12 -8 23 11 12 23 8 23 -8z m2390
-31 c0 -18 -17 -34 -36 -34 -17 0 -24 6 -24 19 0 15 7 19 30 19 17 -1 30 -2
30 -4z m-1663 -44 c6 0 23 -14 38 -31 21 -25 25 -38 20 -63 -4 -17 -14 -37
-23 -44 -20 -16 -67 -9 -88 13 -20 20 -30 19 -71 -6 -23 -14 -42 -39 -58 -75
-19 -42 -29 -54 -52 -59 -15 -3 -42 -13 -60 -22 -18 -8 -39 -13 -47 -10 -19 8
-21 45 -3 66 24 29 66 108 61 114 -3 3 -7 21 -8 40 -1 28 2 33 16 29 10 -2 18
0 18 6 0 17 39 25 56 12 11 -10 22 -7 57 15 53 36 97 46 118 28 8 -7 20 -13
26 -13z m-427 -48 c41 -20 51 -54 23 -84 -14 -16 -26 -19 -60 -14 -30 4 -46 1
-57 -10 -25 -24 -80 -5 -84 29 -2 15 -9 27 -15 27 -7 0 -6 4 3 10 21 13 62 1
82 -24 16 -20 18 -20 35 -3 17 16 17 18 0 47 -32 53 -8 60 73 22z m-844 -33
c10 -17 -10 -30 -53 -36 -44 -6 -63 8 -43 32 14 17 86 20 96 4z m3844 -36 c11
-15 20 -36 18 -47 -2 -17 -11 -22 -52 -24 -64 -4 -93 4 -106 28 -15 29 -3 63
20 57 10 -2 24 -1 31 4 28 17 67 10 89 -18z m-3728 -38 c-2 -15 -10 -34 -18
-42 -7 -8 -17 -25 -20 -39 -3 -13 -11 -24 -18 -24 -6 0 -4 -5 4 -10 13 -8 13
-11 -2 -27 -17 -16 -18 -16 -18 0 0 13 -9 17 -34 17 -52 0 -66 9 -66 41 0 30
30 69 53 69 7 0 18 9 25 20 7 12 17 18 21 15 5 -3 20 -1 33 4 33 14 43 8 40
-24z m3536 -22 c-5 -25 -28 -28 -28 -4 0 12 6 21 16 21 9 0 14 -7 12 -17z
m-618 -53 c0 -5 -5 -10 -11 -10 -5 0 -7 5 -4 10 3 6 8 10 11 10 2 0 4 -4 4
-10z m-790 -43 c0 -21 -37 -50 -55 -43 -22 8 -30 36 -14 47 22 14 69 11 69 -4z
m-2145 -57 c-5 -8 -11 -8 -17 -2 -6 6 -7 16 -3 22 5 8 11 8 17 2 6 -6 7 -16 3
-22z m1074 -35 c51 -24 53 -27 47 -55 -12 -64 -100 -139 -146 -125 -11 3 -28
19 -39 34 -16 22 -19 35 -12 58 17 60 55 113 81 113 8 0 39 -11 69 -25z m526
-15 c10 -16 -14 -50 -35 -50 -28 0 -34 19 -14 41 19 21 39 25 49 9z m595 -39
c0 -26 -27 -34 -39 -12 -12 21 -5 31 21 31 11 0 18 -7 18 -19z m2690 -21 c0
-5 -4 -10 -10 -10 -5 0 -10 5 -10 10 0 6 5 10 10 10 6 0 10 -4 10 -10z m210 0
c0 -15 -38 -50 -55 -50 -20 0 -19 24 1 44 17 18 54 22 54 6z m-6700 -46 c0 -8
-5 -12 -10 -9 -6 4 -8 11 -5 16 9 14 15 11 15 -7z m1681 -60 c11 -14 10 -19
-10 -35 -22 -18 -25 -18 -41 -4 -24 22 -14 55 15 55 12 0 29 -7 36 -16z m761
-24 c10 -15 24 -20 58 -20 68 0 88 -19 89 -82 0 -31 -7 -70 -18 -93 -10 -22
-21 -48 -24 -57 -9 -25 -51 -49 -96 -55 -34 -5 -41 -2 -56 20 -15 24 -15 28 0
58 23 44 32 143 14 154 -8 5 -15 3 -17 -5 -3 -7 -11 2 -18 20 -12 29 -12 36 1
57 19 28 51 30 67 3z m2908 -15 c13 -16 6 -35 -15 -35 -15 0 -28 27 -19 41 8
13 20 11 34 -6z m-3280 -5 c0 -5 -4 -10 -10 -10 -5 0 -10 5 -10 10 0 6 5 10
10 10 6 0 10 -4 10 -10z m210 0 c0 -5 -11 -10 -25 -10 -14 0 -25 5 -25 10 0 6
11 10 25 10 14 0 25 -4 25 -10z m4420 -10 c0 -5 -5 -10 -11 -10 -5 0 -7 5 -4
10 3 6 8 10 11 10 2 0 4 -4 4 -10z m-3295 -29 c0 -24 -28 -34 -60 -21 l-30 12
30 14 c36 16 60 14 60 -5z m-3355 -77 c0 -9 -10 -14 -27 -14 -25 0 -26 -1 -8
-14 10 -7 16 -20 13 -28 -12 -31 9 -42 84 -43 44 0 71 -4 68 -10 -3 -5 -12 -8
-20 -6 -8 1 -12 0 -9 -4 4 -3 22 -8 40 -10 39 -5 99 -32 99 -45 0 -5 -7 -16
-16 -24 -8 -9 -11 -16 -6 -16 4 0 7 -13 4 -30 -2 -16 -7 -30 -11 -30 -11 0
-34 -88 -26 -100 8 -13 -22 -50 -40 -50 -7 0 -20 -9 -30 -20 -10 -11 -31 -20
-46 -20 -15 0 -34 -6 -41 -13 -30 -30 -69 -49 -113 -53 -42 -5 -48 -3 -75 26
-17 18 -30 36 -30 40 0 5 -10 10 -22 12 -15 2 -24 11 -26 25 -2 14 -12 25 -26
29 -12 3 -27 17 -34 32 -17 40 -58 108 -63 103 -2 -3 -19 10 -38 27 -19 17
-38 29 -43 26 -15 -10 -8 24 9 41 9 10 12 20 7 23 -6 4 -11 22 -12 41 -2 19
-8 41 -14 49 -10 11 -9 17 5 27 9 7 17 19 17 28 0 27 34 38 82 28 34 -8 46 -7
60 6 13 12 21 13 31 5 10 -8 24 -8 51 -1 21 6 46 9 56 6 9 -2 35 -1 56 2 30 6
45 3 67 -12 15 -10 27 -25 27 -33z m5288 4 c2 -9 -6 -22 -19 -28 -17 -10 -24
-9 -37 4 -13 12 -13 18 -2 31 17 20 54 16 58 -7z m-128 -38 c7 -16 9 -38 5
-47 -6 -16 -8 -16 -18 -2 -7 9 -22 21 -34 28 -34 18 -30 51 6 51 22 0 31 -6
41 -30z m-1560 -47 c12 -16 18 -33 14 -42 -4 -9 -8 -35 -9 -58 -3 -65 -22
-101 -61 -115 -20 -7 -34 -19 -34 -28 0 -27 -35 -52 -67 -48 -23 2 -27 7 -25
28 2 14 12 34 23 46 10 11 19 27 19 36 0 21 -34 50 -52 43 -8 -3 -27 4 -42 16
-27 21 -27 23 -10 36 10 7 25 13 34 13 27 0 75 28 111 64 41 42 71 45 99 9z
m650 -172 c0 -32 8 -48 39 -83 82 -90 96 -111 96 -146 0 -30 7 -40 44 -66 27
-19 48 -44 55 -66 21 -61 62 -125 87 -137 44 -21 62 -49 54 -80 -5 -15 -7 -32
-6 -37 2 -11 -19 -36 -31 -36 -5 0 -7 8 -4 18 4 12 -3 27 -19 42 -14 13 -25
30 -25 37 0 16 -21 55 -34 65 -6 4 -19 2 -30 -4 -12 -6 -22 -11 -23 -10 -11 7
-25 -2 -32 -20 -9 -24 8 -56 55 -103 26 -26 29 -41 14 -79 -8 -23 -15 -26 -54
-26 -36 0 -50 -5 -71 -27 -14 -15 -25 -31 -25 -35 0 -4 -14 -23 -32 -43 l-31
-36 -91 1 c-50 1 -100 -2 -110 -6 -13 -5 -21 -3 -24 4 -5 17 -39 -3 -47 -29
-6 -18 -13 -20 -43 -16 -21 3 -46 8 -58 12 -19 6 -22 2 -27 -45 -4 -29 -18
-72 -32 -97 -13 -25 -22 -50 -19 -55 3 -5 -2 -15 -12 -22 -11 -8 -15 -21 -11
-34 3 -12 1 -25 -4 -28 -6 -3 -5 -11 2 -20 9 -11 9 -14 -1 -14 -23 0 -78 40
-83 61 -5 17 -10 19 -29 13 -49 -18 -145 3 -166 36 -10 16 -10 24 0 40 12 18
9 23 -19 46 -18 14 -33 33 -33 43 0 9 -5 22 -12 29 -34 34 57 47 102 14 l30
-23 24 28 c22 26 25 26 63 15 55 -16 77 -15 104 6 21 18 22 21 9 66 -7 25 -17
49 -22 52 -14 9 -99 -16 -132 -39 -26 -18 -33 -19 -75 -8 -25 7 -51 17 -58 23
-19 16 -16 66 7 95 35 45 17 83 -39 83 -18 0 -21 6 -21 38 0 32 7 45 48 84 44
43 92 70 92 51 0 -5 16 -17 36 -28 36 -19 84 -68 84 -86 0 -6 -12 -21 -26 -34
-35 -32 -31 -89 6 -93 14 -1 31 1 37 6 18 11 19 136 3 195 -11 38 -11 58 -2
92 6 24 15 87 18 139 6 82 4 102 -11 137 -21 47 -11 62 33 50 20 -6 29 -16 35
-44 5 -20 15 -37 21 -37 7 0 21 -9 31 -20 10 -11 22 -20 27 -20 5 0 25 -16 45
-35 20 -19 41 -35 47 -35 6 0 19 -9 29 -20 9 -11 29 -20 44 -20 16 0 39 -3 52
-7 22 -5 23 -4 19 23 -3 16 -9 37 -13 47 -6 13 3 27 33 55 32 30 37 40 29 54
-9 13 -5 25 16 55 26 37 26 38 8 56 -17 17 -17 22 -4 48 10 20 22 29 39 29 21
0 24 -4 24 -39z m-4670 5 c0 -3 -4 -8 -10 -11 -5 -3 -10 -1 -10 4 0 6 5 11 10
11 6 0 10 -2 10 -4z m3419 -37 c11 -18 11 -23 -1 -30 -31 -20 -53 0 -36 34 12
22 20 22 37 -4z m1446 2 c8 -26 -2 -46 -30 -61 -20 -11 -27 -11 -40 0 -20 17
-19 29 7 57 26 28 54 30 63 4z m-1087 -8 c2 -8 -5 -13 -17 -13 -12 0 -21 6
-21 16 0 18 31 15 38 -3z m342 -38 c7 -9 10 -18 7 -21 -10 -10 -47 7 -47 22 0
19 24 18 40 -1z m-1275 -15 c-3 -5 -15 -10 -26 -10 -10 0 -19 5 -19 10 0 6 12
10 26 10 14 0 23 -4 19 -10z m1132 -97 c65 -37 91 -64 98 -103 7 -41 -15 -99
-38 -101 -42 -2 -64 -14 -90 -44 -45 -55 -78 -46 -138 37 l-20 27 32 23 c31
23 31 24 26 88 -4 52 -2 67 11 77 24 18 82 16 119 -4z m-1148 -95 c33 -20 2
-77 -44 -78 -11 0 -29 -7 -39 -15 -11 -8 -35 -15 -54 -15 -19 0 -49 -9 -67
-20 -38 -24 -67 -17 -63 14 2 17 12 22 55 26 40 4 57 12 75 32 13 15 35 30 50
33 15 4 32 13 39 21 14 17 24 18 48 2z m296 -48 c8 -13 -14 -42 -26 -34 -5 3
-9 14 -9 25 0 20 24 26 35 9z m-531 -165 c13 -10 17 -21 12 -39 -8 -33 -41
-34 -72 -5 -44 41 11 81 60 44z m1042 1 c18 -14 18 -15 0 -22 -11 -4 -21 -2
-27 7 -19 31 -5 38 27 15z m-676 -106 c0 -11 -4 -20 -9 -20 -14 0 -23 18 -16
30 10 17 25 11 25 -10z m900 -110 c0 -5 -4 -10 -10 -10 -5 0 -10 5 -10 10 0 6
5 10 10 10 6 0 10 -4 10 -10z m-3421 -166 c22 -3 42 -12 45 -21 4 -8 12 -13
20 -10 22 9 58 -88 61 -168 1 -23 10 -55 19 -73 14 -26 14 -39 5 -79 -41 -170
-129 -241 -279 -222 -67 8 -140 35 -140 51 0 5 -9 28 -19 52 -11 23 -20 62
-21 87 0 55 9 149 17 169 3 8 5 22 4 32 -3 23 26 88 38 88 6 0 11 8 11 19 0
10 18 31 43 47 66 45 73 46 196 28z m4041 -34 c0 -5 7 -10 15 -10 22 0 18 -18
-6 -25 -25 -8 -44 7 -36 29 7 18 27 22 27 6z m1989 -82 c24 -13 41 -29 41 -40
0 -16 23 -76 41 -108 48 -84 51 -92 54 -212 4 -110 2 -122 -21 -167 -13 -27
-24 -63 -24 -80 0 -55 -52 -171 -98 -220 -42 -46 -81 -138 -67 -161 8 -13 -4
-52 -14 -46 -15 9 -32 -12 -32 -40 0 -47 12 -114 22 -120 15 -9 11 -67 -4 -61
-12 4 -51 -34 -93 -90 -10 -15 -15 -16 -25 -5 -18 16 -32 15 -26 -2 4 -10 1
-13 -8 -10 -10 4 -12 -2 -5 -30 6 -26 5 -36 -4 -35 -6 1 -18 0 -26 -3 -8 -3
-34 -11 -57 -17 -34 -9 -43 -16 -43 -34 1 -27 33 -67 55 -67 8 0 35 10 58 22
50 26 62 25 99 -10 33 -32 36 -52 7 -52 -16 0 -20 5 -16 20 4 17 0 20 -24 20
-26 0 -29 -3 -29 -33 0 -18 5 -38 11 -44 8 -8 8 -17 0 -30 -9 -18 -20 -82 -26
-154 -1 -15 6 -52 16 -83 18 -57 18 -67 -7 -121 -40 -86 -86 -105 -267 -110
-108 -3 -137 -12 -137 -42 0 -9 -6 -13 -15 -9 -8 3 -27 1 -42 -5 -36 -12 -84
-95 -73 -124 13 -32 13 -32 -39 -39 -28 -4 -66 -13 -85 -21 -19 -8 -66 -15
-103 -15 -37 0 -90 -7 -118 -16 -42 -13 -60 -13 -113 -2 -49 9 -68 9 -83 0
-54 -34 -52 5 3 52 53 46 200 119 222 110 9 -3 16 -2 16 4 0 6 -6 12 -12 14
-7 3 -13 22 -13 46 0 33 7 48 32 74 18 18 44 60 59 92 25 56 26 64 20 155 -4
53 -7 109 -6 125 1 31 -17 94 -32 113 -11 14 -38 6 -38 -11 0 -23 -58 -82
-103 -104 -66 -33 -282 -73 -333 -62 -22 5 -68 12 -103 15 -51 5 -67 2 -89
-13 -51 -36 -208 -110 -248 -117 -21 -4 -60 -14 -85 -22 -26 -9 -54 -13 -62
-10 -53 20 -82 164 -74 357 4 74 11 160 16 190 30 162 56 475 56 665 0 266 3
271 138 243 61 -13 103 -44 222 -162 39 -39 114 -63 145 -46 12 6 47 14 78 17
32 2 77 13 102 24 37 17 74 22 199 26 200 7 263 -10 350 -94 24 -24 46 -43 50
-43 3 0 21 -23 40 -50 19 -28 38 -50 43 -50 4 0 8 -5 8 -11 0 -11 24 -39 34
-39 4 0 26 -9 51 -21 33 -15 45 -27 45 -43 0 -12 10 -27 22 -35 20 -12 24 -11
47 18 14 17 31 31 38 31 17 0 23 13 33 73 9 60 -7 102 -59 151 -17 17 -31 36
-31 44 0 8 -9 25 -20 39 -27 34 -25 63 6 131 14 31 35 77 47 102 11 25 28 56
37 70 9 14 27 54 40 90 13 36 34 80 47 98 24 32 124 112 141 112 5 0 43 16 83
35 87 41 104 42 158 13z m-1431 -1 c6 -7 9 -23 5 -35 -4 -17 -10 -21 -27 -16
-11 3 -27 13 -33 22 -25 31 30 59 55 29z m-2720 -119 c18 -18 15 -28 -9 -28
-11 0 -29 -5 -40 -10 -16 -9 -19 -7 -19 14 0 34 43 49 68 24z m1315 -63 c-3
-8 -9 -15 -14 -15 -10 0 -12 24 -3 33 11 11 24 -3 17 -18z m1147 -2005 c0 -23
-26 -38 -41 -23 -14 14 0 43 22 43 12 0 19 -7 19 -20z m-5393 -314 c18 -34 8
-46 -29 -39 -26 5 -28 9 -28 56 l0 50 21 -19 c12 -10 28 -32 36 -48z m30 -144
c19 -30 199 -254 232 -289 22 -23 28 -47 11 -41 -5 2 -35 35 -65 73 -31 39
-96 114 -146 167 -54 58 -89 105 -89 118 0 18 3 19 20 10 11 -6 28 -23 37 -38z
m13 -108 c0 -9 -5 -14 -12 -12 -18 6 -21 28 -4 28 9 0 16 -7 16 -16z m6104 -6
c8 -14 4 -23 -24 -48 -65 -58 -110 -71 -124 -34 -8 22 10 61 35 75 58 31 96
33 113 7z m-5654 -68 c0 -13 -11 -13 -30 0 -12 8 -11 10 8 10 12 0 22 -4 22
-10z m-10 -53 c17 -31 16 -32 -32 -40 -32 -5 -38 -2 -44 16 -5 15 0 26 16 39
28 23 40 19 60 -15z m-120 -46 c0 -6 -4 -13 -10 -16 -5 -3 -10 1 -10 9 0 9 5
16 10 16 6 0 10 -4 10 -9z m-349 -143 c49 -38 63 -64 30 -55 -24 6 -24 6 -12
-26 l10 -25 -49 21 c-49 22 -50 22 -50 70 0 57 12 60 71 15z m486 -101 c12
-37 36 -84 52 -105 38 -44 40 -58 6 -36 -14 9 -25 22 -25 28 0 7 -18 30 -40
51 -57 56 -78 142 -32 133 11 -2 25 -27 39 -71z m163 -60 c18 -32 8 -44 -24
-28 -13 7 -33 10 -45 6 -32 -10 -27 21 7 39 34 19 43 16 62 -17z m103 -21 c9
-23 -18 -39 -42 -26 -33 17 -25 40 15 40 12 0 24 -6 27 -14z m-482 -52 c35
-14 73 -34 85 -45 11 -11 39 -25 62 -32 33 -9 40 -15 32 -27 -14 -22 -135 -18
-191 7 -79 36 -144 104 -83 89 22 -6 25 -4 19 14 -8 26 -2 25 76 -6z m507 -94
c28 -17 31 -23 22 -39 -15 -30 -27 -33 -80 -26 -56 8 -67 24 -39 59 25 31 53
33 97 6z m-48 -110 c22 -7 21 -8 -13 -9 -21 -1 -47 -6 -58 -11 -24 -13 -25 -2
-1 16 19 15 35 16 72 4z m-612 -84 c3 -13 -1 -17 -14 -14 -11 2 -20 11 -22 22
-3 13 1 17 14 14 11 -2 20 -11 22 -22z m652 -46 c0 -5 -5 -10 -11 -10 -5 0 -7
5 -4 10 3 6 8 10 11 10 2 0 4 -4 4 -10z m834 -56 c48 -2 97 -9 107 -15 18 -9
17 -12 -16 -46 -19 -19 -32 -40 -29 -44 3 -5 -2 -9 -11 -9 -8 0 -19 -8 -22
-17 -4 -10 -14 -23 -22 -29 -13 -10 -13 -14 -1 -29 13 -15 11 -17 -15 -13 -27
3 -30 0 -28 -24 1 -21 -3 -28 -20 -30 -17 -2 -22 -10 -22 -33 0 -25 -3 -30
-22 -27 -17 2 -23 -2 -23 -15 0 -19 -33 -46 -43 -36 -3 3 4 18 15 34 l21 28
-24 20 c-22 18 -25 18 -42 3 -12 -10 -14 -19 -7 -26 16 -16 12 -26 -14 -26
-17 0 -25 7 -28 25 -4 16 -1 25 8 25 20 0 27 19 14 35 -17 21 -41 19 -47 -5
-3 -10 -16 -26 -29 -35 -39 -26 -26 -55 25 -55 10 0 23 -12 30 -26 10 -23 10
-26 -4 -20 -9 3 -23 6 -31 6 -8 0 -14 6 -14 13 0 13 -11 17 -52 18 -22 0 -24
27 -3 35 18 7 20 50 3 58 -7 3 0 3 15 -1 23 -4 29 -2 34 16 3 12 13 21 24 21
24 0 24 4 -3 40 -21 29 -21 30 -3 50 10 11 23 20 28 20 11 0 36 30 37 43 0 5
-9 5 -20 2 -13 -4 -22 -1 -26 9 -6 16 14 51 24 41 3 -3 13 2 23 11 12 11 25
14 36 9 32 -14 41 -13 47 2 4 10 13 13 24 8 9 -3 57 -8 106 -11z m196 -66 c0
-21 11 -23 27 -7 7 7 19 8 30 3 19 -8 29 -11 51 -13 6 0 12 -12 12 -26 0 -14
-6 -25 -12 -25 -13 0 -38 -44 -38 -67 0 -7 -4 -13 -10 -13 -5 0 -10 -4 -10 -9
0 -14 54 -24 58 -12 2 6 10 18 19 26 13 13 13 15 0 15 -8 0 -18 7 -21 16 -4
11 0 14 16 12 16 -2 26 5 36 25 14 29 33 35 49 15 17 -22 12 -49 -8 -43 -13 4
-22 -3 -34 -29 -9 -19 -23 -40 -31 -47 -8 -6 -14 -17 -14 -24 0 -6 -9 -20 -20
-30 -10 -9 -18 -22 -17 -28 1 -7 -8 -13 -20 -15 -20 -3 -23 1 -23 28 0 24 4
30 18 28 10 -2 17 3 17 12 0 8 -6 14 -14 12 -8 -2 -18 2 -22 9 -11 19 -42 2
-36 -21 4 -15 -2 -20 -25 -25 -20 -5 -28 -12 -24 -21 3 -9 -4 -16 -19 -20 -18
-5 -25 -13 -25 -31 0 -20 -3 -23 -13 -14 -16 13 -35 0 -61 -42 l-17 -28 48 5
c44 6 65 19 76 50 7 18 29 -9 25 -30 -3 -13 -11 -18 -26 -17 -24 3 -29 -16
-10 -35 15 -15 74 -16 83 -2 4 7 14 2 26 -12 45 -55 44 -54 47 -35 6 28 22 19
22 -13 0 -16 9 -37 19 -47 11 -10 22 -30 26 -45 6 -24 4 -28 -13 -28 -12 0
-24 5 -27 10 -4 6 -10 8 -15 5 -5 -3 -11 -1 -15 5 -3 5 -15 10 -27 10 -17 0
-18 -2 -8 -15 20 -24 3 -30 -27 -9 -58 39 -95 54 -138 59 -25 2 -54 9 -64 15
-14 7 -34 5 -73 -7 -29 -10 -55 -21 -56 -25 -2 -5 -20 -15 -39 -23 -43 -18
-92 -8 -143 30 -32 24 -41 26 -98 20 -35 -3 -74 -10 -88 -15 -33 -13 -115 -13
-148 0 -17 6 -27 6 -32 -1 -4 -7 -17 -1 -33 14 -29 28 -81 46 -81 28 0 -6 5
-11 12 -11 6 0 8 -3 4 -7 -7 -8 -96 -4 -109 4 -14 9 15 33 39 33 13 0 24 4 24
10 0 5 19 14 43 20 44 12 104 33 199 70 56 22 72 41 68 83 -1 16 2 17 19 7 21
-11 30 -50 11 -50 -5 0 -10 -6 -10 -14 0 -11 14 -14 55 -13 34 1 54 5 52 12
-3 5 -14 9 -26 8 -19 -3 -20 0 -11 17 14 27 34 25 48 -4 9 -21 17 -24 80 -25
62 -1 70 1 75 19 7 26 23 26 30 0 4 -16 14 -20 45 -20 22 0 42 -4 44 -8 4 -12
68 -24 68 -13 0 5 19 33 43 63 23 29 47 60 52 69 6 9 30 45 55 79 25 34 52 73
60 86 16 25 40 32 40 12 0 -6 -10 -22 -22 -35 -22 -24 -21 -37 3 -28 19 7 43
69 29 73 -5 2 -7 15 -4 28 7 27 -10 33 -20 8 -5 -12 -9 -14 -20 -5 -13 11 -33
-3 -80 -57 -16 -18 -17 -24 -6 -37 12 -14 10 -15 -13 -10 -22 6 -27 3 -33 -19
-3 -14 -10 -26 -15 -26 -5 0 -9 -9 -9 -20 0 -11 5 -20 10 -20 6 0 10 -5 10
-11 0 -6 -10 -9 -22 -8 -30 4 -48 -8 -48 -30 0 -10 -9 -21 -21 -24 -11 -3 -23
-15 -26 -26 -6 -24 -23 -28 -23 -6 0 8 -4 15 -10 15 -5 0 -10 4 -10 10 0 5 10
9 22 7 17 -1 24 4 26 21 2 12 7 22 12 22 5 0 35 39 67 88 32 48 70 98 86 111
24 20 28 30 24 57 -5 31 -5 32 24 21 17 -7 29 -19 29 -29z m-480 23 c-8 -6
-17 -8 -20 -6 -4 2 -12 -12 -19 -31 -15 -42 -37 -44 -43 -4 -4 27 -1 31 26 39
17 5 40 10 51 10 16 1 17 -1 5 -8z m-120 -41 c0 -11 -4 -20 -10 -20 -5 0 -10
-7 -10 -15 0 -10 -8 -14 -22 -12 -25 4 -37 27 -14 27 8 0 20 9 26 20 6 11 15
20 20 20 6 0 10 -9 10 -20z m876 -94 c3 -8 -3 -29 -12 -48 -10 -18 -17 -40
-16 -48 2 -9 -9 -27 -23 -40 -14 -13 -25 -34 -25 -47 0 -13 -4 -23 -10 -23 -5
0 -10 7 -10 15 0 8 -4 15 -10 15 -12 0 -12 -2 0 -34 11 -29 8 -31 -20 -14 -25
16 -29 10 -23 -29 4 -22 11 -33 22 -33 10 0 12 -3 5 -8 -6 -4 -13 -15 -17 -25
-9 -24 -30 -11 -22 14 5 15 1 19 -20 19 -37 0 -43 27 -11 55 14 12 26 26 26
30 0 4 10 18 23 30 38 39 47 53 47 75 0 11 6 19 13 18 7 -2 13 9 15 25 2 15 8
27 13 27 5 0 9 6 9 14 0 13 13 23 33 25 4 1 10 -5 13 -13z m-781 -54 c-3 -3
-11 0 -18 7 -9 10 -8 11 6 5 10 -3 15 -9 12 -12z m885 -10 c0 -14 -49 -56 -57
-48 -4 3 4 17 18 31 25 25 39 31 39 17z m454 -45 c109 -29 149 -54 127 -81 -7
-9 -11 -22 -8 -30 3 -8 -1 -20 -9 -27 -12 -10 -22 -10 -51 0 -26 10 -37 10
-43 2 -7 -12 -11 -12 -170 26 -62 15 -181 72 -187 90 -6 17 43 37 107 44 87 9
117 6 234 -24z m-411 -15 c-6 -4 -12 -15 -14 -24 -3 -13 -8 -15 -18 -8 -12 7
-11 12 10 28 13 11 26 18 29 16 2 -3 -1 -8 -7 -12z m-103 -17 c0 -9 -6 -12
-15 -9 -8 4 -12 10 -9 15 8 14 24 10 24 -6z m-15 -65 c23 0 18 -26 -11 -55
-31 -31 -42 -27 -20 7 17 26 11 68 -10 68 -17 0 -18 12 -2 28 10 10 14 7 21
-18 4 -16 14 -30 22 -30z m-267 15 c16 -34 15 -40 -3 -25 -8 6 -23 9 -35 5
-23 -7 -28 13 -8 33 19 19 34 14 46 -13z m422 -21 c-18 -21 -24 -10 -8 15 7
12 14 17 16 11 2 -6 -2 -17 -8 -26z m-45 -40 c-10 -8 -31 -25 -46 -38 -15 -13
-30 -21 -34 -18 -5 4 -5 -6 -1 -21 6 -25 4 -28 -12 -23 -21 7 -62 -26 -62 -50
0 -8 -4 -12 -10 -9 -5 3 -10 11 -10 17 0 14 132 148 146 148 6 0 18 7 25 16
10 12 14 13 18 3 2 -7 -4 -18 -14 -25z m50 -44 c-3 -5 -12 -10 -18 -10 -7 0
-6 4 3 10 19 12 23 12 15 0z m-230 -58 c0 -18 -20 -15 -23 4 -3 10 1 15 10 12
7 -3 13 -10 13 -16z m139 -27 c-4 -8 -10 -15 -15 -15 -5 0 -9 7 -9 15 0 8 7
15 15 15 9 0 12 -6 9 -15z m91 -34 c-3 -6 -11 -11 -17 -11 -6 0 -6 6 2 15 14
17 26 13 15 -4z m-139 -22 c6 -11 -31 -48 -48 -49 -14 0 -8 28 8 44 18 19 30
20 40 5z m88 -11 c-7 -23 -21 -38 -37 -38 -5 0 1 14 13 30 25 36 34 38 24 8z
m-1651 -55 c36 -51 19 -65 -26 -22 -33 33 -39 59 -13 59 7 0 25 -17 39 -37z
m37 22 c0 -8 -2 -15 -4 -15 -2 0 -6 7 -10 15 -3 8 -1 15 4 15 6 0 10 -7 10
-15z m-110 -23 c0 -25 35 -89 86 -154 55 -71 56 -84 3 -33 -49 48 -141 183
-133 196 10 16 44 10 44 -9z m1670 -2 c0 -5 -5 -10 -11 -10 -5 0 -7 5 -4 10 3
6 8 10 11 10 2 0 4 -4 4 -10z m-1724 -41 c4 -22 18 -54 31 -70 32 -37 10 -39
-42 -3 -34 22 -39 24 -47 10 -8 -14 -12 -12 -33 12 -22 24 -24 25 -25 7 0 -21
40 -87 69 -115 9 -9 44 -37 78 -63 69 -53 95 -83 44 -51 -53 34 -147 120 -210
194 -33 38 -62 66 -65 63 -11 -12 -6 -35 15 -65 25 -34 21 -41 -24 -42 -19 -1
-42 -11 -55 -24 -19 -19 -26 -21 -38 -11 -20 16 -18 41 6 67 11 12 20 30 20
41 0 27 27 40 101 48 34 3 83 14 108 24 25 10 49 18 53 19 4 0 11 -18 14 -41z
m-251 -429 c10 -11 21 -20 25 -20 13 0 120 -73 120 -81 0 -14 17 -10 36 8 15
16 19 14 53 -23 20 -22 46 -53 59 -69 l23 -30 -5 31 -5 32 48 -31 c27 -18 47
-37 44 -44 -2 -6 1 -21 7 -33 14 -25 2 -44 -22 -35 -9 4 -24 22 -34 41 -19 35
-42 49 -29 17 12 -28 18 -83 9 -83 -4 0 -21 12 -36 27 l-28 27 6 -34 c7 -33 7
-33 -24 -27 -20 4 -34 1 -42 -8 -8 -10 -17 -12 -29 -5 -11 5 -33 5 -60 -2 -41
-10 -50 -9 -140 19 -10 3 -8 -3 8 -16 33 -30 20 -26 -82 20 -69 32 -97 40
-123 36 l-34 -6 0 62 c0 60 2 64 50 120 98 114 166 150 205 107z m152 -32 c-3
-8 -6 -5 -6 6 -1 11 2 17 5 13 3 -3 4 -12 1 -19z m547 -154 c57 -26 72 -44 36
-44 -37 0 -110 41 -110 62 0 13 14 10 74 -18z m-824 -264 l35 -31 -42 21 c-24
11 -43 25 -43 30 0 17 15 11 50 -20z m3705 -609 c3 -6 -11 -11 -32 -13 -41 -3
-50 -15 -31 -41 9 -11 39 -20 93 -28 44 -6 96 -18 115 -27 57 -26 74 -29 100
-20 31 12 93 1 87 -15 -2 -7 -17 -13 -33 -15 -16 -2 -51 -10 -78 -18 -27 -8
-72 -14 -99 -14 -61 0 -194 46 -224 77 -24 25 -34 28 -49 13 -15 -15 -44 -1
-44 20 0 20 37 70 52 70 6 0 16 -8 23 -17 11 -15 15 -15 29 -4 9 7 13 17 11
21 -3 5 9 11 27 13 18 2 36 5 40 5 4 1 9 -2 13 -7z m150 0 c8 -15 -6 -18 -52
-13 -24 2 -40 8 -37 13 7 12 81 12 89 0z m190 -14 c11 1 65 4 120 8 95 7 107
5 235 -28 74 -20 160 -45 190 -56 l55 -21 -110 4 -110 3 39 -16 c50 -22 40
-28 -49 -32 -48 -3 -89 2 -130 14 -109 34 -121 37 -144 37 -12 0 -32 7 -44 15
-12 8 -56 19 -97 25 -105 16 -124 23 -128 44 -4 18 1 18 74 11 44 -5 88 -8 99
-8z m869 -51 c47 -20 54 -36 12 -26 -40 9 -56 18 -56 31 0 12 5 12 44 -5z
m133 -2 c-3 -3 -12 -4 -19 -1 -8 3 -5 6 6 6 11 1 17 -2 13 -5z m80 0 c-3 -3
-12 -4 -19 -1 -8 3 -5 6 6 6 11 1 17 -2 13 -5z m69 -31 c-7 -7 -26 7 -26 19 0
6 6 6 15 -2 9 -7 13 -15 11 -17z m-436 -77 c63 -8 176 -17 250 -21 201 -9 213
-11 438 -62 12 -3 22 -9 22 -14 0 -5 0 -11 0 -14 0 -3 -1 -4 -3 -2 -2 1 -16
-6 -31 -17 -20 -13 -50 -19 -100 -20 -73 -3 -260 27 -280 43 -6 5 -74 17 -150
25 -86 9 -142 20 -147 28 -4 7 -18 13 -31 13 -13 1 -30 6 -38 11 -8 5 -33 17
-55 26 -34 14 -36 17 -15 17 14 1 77 -5 140 -13z m-376 -35 c16 -6 26 -15 22
-19 -4 -4 -73 -7 -154 -8 -81 -1 -190 -6 -242 -11 -52 -5 -101 -8 -107 -5 -25
8 -12 21 45 41 51 18 76 20 232 17 105 -1 187 -8 204 -15z m2086 -66 c16 -20
-3 -20 -45 0 l-30 13 31 1 c17 1 37 -6 44 -14z m-2717 -41 c-7 -37 -21 -159
-19 -161 8 -9 46 90 41 107 -5 17 -2 20 23 20 18 0 32 -6 36 -16 4 -9 5 -17 4
-18 -2 -1 -14 -7 -28 -14 -15 -8 -37 -38 -55 -75 -48 -99 -87 -91 -95 21 -5
64 -6 67 -33 70 -25 3 -30 -2 -51 -50 -28 -62 -41 -75 -84 -84 -30 -6 -33 -4
-47 30 -20 46 -39 54 -73 29 -52 -38 -72 -45 -88 -32 -8 6 -14 19 -14 29 0 10
-6 23 -14 29 -11 10 -21 6 -49 -19 -19 -16 -42 -30 -50 -30 -23 0 -47 39 -46
75 l0 30 16 -39 16 -38 13 31 c8 19 10 40 5 54 -9 26 -4 57 10 57 5 0 36 -14
69 -32 42 -21 57 -35 50 -42 -13 -13 -13 -73 0 -81 10 -6 43 57 43 83 0 14 3
14 35 6 12 -4 22 -11 22 -17 0 -6 -10 -22 -22 -36 -22 -23 -21 -23 14 3 26 19
39 39 44 62 9 50 23 32 21 -29 -1 -61 10 -100 26 -94 8 3 11 24 10 55 -2 35 2
52 11 55 8 3 17 19 21 36 4 17 12 31 18 31 16 0 16 -95 0 -111 -15 -15 -17
-53 -3 -44 6 3 10 14 10 24 0 10 9 26 20 36 11 10 20 27 20 37 0 19 36 39 56
31 20 -8 44 -62 44 -102 0 -23 4 -41 9 -41 12 0 35 86 27 106 -8 20 15 76 29
70 5 -2 9 -7 8 -12z m2797 6 c0 -5 -2 -10 -4 -10 -3 0 -8 5 -11 10 -3 6 -1 10
4 10 6 0 11 -4 11 -10z m-3490 -5 c0 -2 -22 -16 -49 -30 -27 -13 -52 -29 -56
-35 -11 -18 46 -11 72 10 38 30 48 24 19 -11 -14 -17 -33 -56 -42 -87 -21 -71
-34 -92 -56 -92 -13 0 -18 8 -18 26 0 28 -16 64 -29 64 -5 0 -5 -18 -1 -39 6
-34 4 -40 -12 -45 -22 -5 -107 0 -115 7 -2 3 6 23 18 45 16 28 32 42 52 46 25
5 28 9 22 34 -9 45 27 66 193 111 1 1 2 -1 2 -4z m267 -11 c-3 -3 -12 -4 -19
-1 -8 3 -5 6 6 6 11 1 17 -2 13 -5z m948 -26 c-8 -35 -35 -81 -35 -60 0 7 -4
10 -10 7 -5 -3 -10 -2 -10 4 0 5 4 12 9 15 4 3 11 19 14 36 4 18 13 30 23 30
12 0 14 -6 9 -32z m-114 11 c20 -10 20 -11 2 -24 -26 -20 -33 -18 -33 10 0 28
3 29 31 14z m2339 -4 c16 -19 0 -19 -26 0 -16 12 -16 14 -3 15 9 0 22 -7 29
-15z m-2465 -25 c15 -29 21 -69 8 -57 -3 4 -14 25 -24 47 -21 46 -7 55 16 10z
m-1281 4 c3 -9 6 -27 6 -41 0 -16 7 -27 20 -30 29 -8 25 -19 -26 -69 l-45 -45
-92 7 c-57 4 -98 11 -107 20 -10 10 -10 14 -2 14 7 0 13 8 13 18 1 15 2 15 6
-1 3 -11 11 -16 19 -13 9 3 12 1 9 -4 -3 -6 0 -10 7 -10 17 0 51 56 43 70 -3
6 3 10 13 10 12 0 19 6 18 17 -1 18 69 72 95 73 9 0 20 -7 23 -16z m1166 6 c0
-5 -4 -10 -10 -10 -5 0 -10 5 -10 10 0 6 5 10 10 10 6 0 10 -4 10 -10z m2770
-5 c21 -25 3 -29 -26 -6 -24 19 -25 21 -7 21 11 0 26 -7 33 -15z m-2751 -16
c-8 -5 -23 -9 -34 -9 -17 0 -17 2 5 14 27 14 52 10 29 -5z m1182 -11 c4 -6 14
-5 27 3 17 11 23 10 37 -1 14 -12 18 -12 25 0 7 11 11 8 21 -13 14 -32 29 -35
36 -7 9 35 29 21 42 -30 13 -49 26 -68 39 -55 3 3 0 10 -7 14 -9 6 -11 20 -6
50 8 47 16 51 35 17 7 -14 18 -22 26 -19 9 3 14 -2 14 -17 0 -13 -8 -24 -20
-27 -30 -8 -13 -23 26 -23 36 0 74 -15 74 -28 0 -4 -22 -21 -50 -37 -27 -16
-50 -34 -51 -40 0 -5 -4 0 -10 13 -5 15 -13 20 -21 16 -6 -4 -80 -8 -164 -9
-123 -2 -154 1 -158 12 -5 12 -9 12 -28 -1 -16 -11 -25 -13 -35 -4 -7 6 -29 8
-48 5 -22 -4 -35 -2 -35 5 0 7 -17 8 -50 4 -46 -6 -50 -5 -50 14 0 24 -8 25
-32 3 -17 -15 -18 -15 -18 2 0 10 12 34 27 53 23 31 27 33 33 17 6 -17 10 -15
35 13 36 41 58 43 49 5 -7 -26 -6 -27 10 -14 10 8 24 27 32 43 11 22 22 28 47
29 17 0 48 6 67 13 36 14 70 11 81 -6z m-751 -35 c0 -63 -12 -82 -35 -60 -21
22 -32 21 -38 0 -3 -10 -5 -3 -6 15 -1 41 14 70 42 82 35 14 37 12 37 -37z
m110 6 c0 -48 -19 -44 -21 4 -1 28 -2 27 -8 -10 -8 -50 -21 -68 -21 -30 0 38
17 77 35 77 11 0 15 -11 15 -41z m2095 30 c12 -19 -5 -23 -22 -6 -16 16 -16
17 -1 17 9 0 20 -5 23 -11z m175 1 c0 -5 -4 -10 -10 -10 -5 0 -10 5 -10 10 0
6 5 10 10 10 6 0 10 -4 10 -10z m-2843 -32 c-3 -8 -6 -5 -6 6 -1 11 2 17 5 13
3 -3 4 -12 1 -19z m93 -13 c0 -5 -5 -3 -10 5 -5 8 -10 20 -10 25 0 6 5 3 10
-5 5 -8 10 -19 10 -25z m1470 4 c0 -10 -4 -19 -10 -19 -5 0 -10 12 -10 26 0
14 4 23 10 19 6 -3 10 -15 10 -26z m-920 17 c0 -3 -4 -8 -10 -11 -5 -3 -10 -1
-10 4 0 6 5 11 10 11 6 0 10 -2 10 -4z m180 -16 c0 -23 -44 -115 -60 -125 -6
-4 -10 14 -10 49 0 44 4 59 22 76 28 26 48 26 48 0z m-849 -17 c20 5 26 -7 9
-18 -15 -9 -40 14 -39 34 1 13 2 12 6 -2 3 -13 11 -17 24 -14z m719 -38 c0
-43 -16 -65 -48 -65 -13 0 0 57 19 88 21 33 29 27 29 -23z m2204 39 c9 -3 16
-12 16 -20 0 -8 4 -14 8 -14 18 0 160 -148 190 -198 18 -29 32 -55 32 -58 0
-6 -71 67 -123 127 -21 24 -66 72 -99 107 -57 58 -62 71 -24 56z m-2764 -84
c-15 -27 -34 -21 -38 13 -3 20 0 25 11 21 10 -3 18 3 23 18 8 23 9 23 12 -4 2
-15 -2 -37 -8 -48z m460 25 c0 -8 -4 -15 -10 -15 -5 0 -10 7 -10 15 0 8 5 15
10 15 6 0 10 -7 10 -15z m1241 -46 c8 -16 6 -19 -14 -19 -31 0 -57 28 -37 40
17 11 38 2 51 -21z m-2216 1 c-32 -21 -71 -27 -60 -9 9 13 44 28 70 28 16 1
15 -3 -10 -19z m2485 -50 c0 -6 -9 -10 -20 -10 -13 0 -20 7 -20 20 0 18 3 19
20 10 11 -6 20 -15 20 -20z m225 0 c3 -6 17 -7 31 -4 18 5 24 2 24 -10 0 -10
6 -13 16 -9 24 9 64 -35 55 -61 -5 -11 -6 -27 -4 -33 3 -7 0 -13 -6 -13 -6 0
-11 12 -12 28 -1 38 -14 69 -23 54 -4 -7 -17 -12 -30 -12 -12 0 -28 -6 -35
-12 -10 -11 -14 -10 -22 4 -7 12 -18 16 -37 13 -30 -6 -68 17 -57 34 3 6 19
11 36 11 16 0 29 5 29 10 0 13 27 13 35 0z m815 -42 c0 -5 14 -29 30 -53 17
-24 30 -48 30 -54 0 -37 -54 27 -65 77 -3 17 -11 34 -16 37 -5 4 -9 11 -9 17
0 7 6 6 15 -2 8 -7 15 -17 15 -22z m-3220 -4 c0 -8 -6 -14 -14 -14 -7 0 -29
-3 -47 -6 l-34 -6 33 25 c34 26 62 26 62 1z m3326 1 c9 -14 14 -28 11 -31 -6
-6 -47 36 -47 48 0 17 20 7 36 -17z m-3521 -62 c15 -15 14 -17 -17 -28 -18 -7
-41 -16 -50 -20 -26 -10 -22 5 9 37 31 33 36 34 58 11z m2945 13 c0 -3 -4 -8
-10 -11 -5 -3 -10 -1 -10 4 0 6 5 11 10 11 6 0 10 -2 10 -4z m194 -22 c4 -10
1 -14 -6 -12 -15 5 -23 28 -10 28 5 0 13 -7 16 -16z m-481 -11 c-7 -2 -19 -2
-25 0 -7 3 -2 5 12 5 14 0 19 -2 13 -5z m-5934 -19 c2 -2 1 -11 -3 -20 -5 -13
-13 -15 -39 -9 -28 7 -45 9 -103 14 -8 0 -12 6 -8 12 3 6 16 8 28 5 12 -3 35
-1 51 3 26 8 62 5 74 -5z m6651 -24 c0 -5 -2 -10 -4 -10 -3 0 -8 5 -11 10 -3
6 -1 10 4 10 6 0 11 -4 11 -10z m-6520 -10 c0 -10 -32 -30 -49 -30 -20 0 -11
20 12 30 29 12 37 12 37 0z m5913 -77 c-7 -2 -19 -2 -25 0 -7 3 -2 5 12 5 14
0 19 -2 13 -5z m-4589 -34 c27 -13 52 -84 33 -96 -11 -7 -37 23 -37 43 0 7 -4
14 -9 16 -9 3 -25 48 -17 48 3 0 16 -5 30 -11z m4652 -11 c3 -5 4 -12 1 -14
-6 -6 -47 18 -47 27 0 10 39 -1 46 -13z m68 -4 c17 -7 22 -44 6 -44 -9 0 -30
31 -30 44 0 8 5 7 24 0z m-3109 -63 c22 -6 87 -13 145 -16 58 -3 137 -12 175
-19 39 -8 151 -17 251 -19 160 -5 186 -8 222 -27 30 -16 50 -20 73 -15 31 7
32 6 25 -21 -8 -32 -21 -43 -51 -45 -65 -6 -81 -6 -90 1 -21 15 -107 22 -116
9 -6 -10 -11 -10 -22 0 -13 10 -16 9 -21 -7 -6 -18 -18 -21 -176 -44 -27 -4
-200 14 -200 21 0 4 -13 12 -30 18 -16 6 -30 18 -30 27 0 18 -15 21 -25 6 -3
-5 -15 -10 -26 -10 -11 0 -18 4 -15 8 3 5 -12 7 -34 5 -21 -2 -41 1 -44 6 -4
6 -28 8 -56 4 -33 -4 -50 -2 -50 5 0 6 -10 14 -22 18 -12 3 -46 22 -76 41 -61
39 -57 52 13 54 22 0 51 5 65 9 27 10 54 7 115 -9z m3610 -53 c8 -42 -4 -50
-32 -22 -12 11 -13 18 -4 27 6 6 11 22 11 37 1 34 16 9 25 -42z m-201 37 c25
-19 40 -19 32 0 -3 9 0 15 8 15 8 0 16 -9 19 -20 3 -11 12 -20 21 -20 10 0 13
6 9 16 -4 12 -1 15 13 12 12 -2 20 -13 22 -31 4 -29 65 -77 98 -77 14 0 14 -2
3 -16 -25 -31 -235 6 -259 46 -7 12 0 90 9 90 3 0 15 -7 25 -15z m-2537 -267
c-3 -8 -6 -5 -6 6 -1 11 2 17 5 13 3 -3 4 -12 1 -19z"/>
<path d="M1011 8804 c0 -11 3 -14 6 -6 3 7 2 16 -1 19 -3 4 -6 -2 -5 -13z"/>
<path d="M1088 8813 c7 -3 16 -2 19 1 4 3 -2 6 -13 5 -11 0 -14 -3 -6 -6z"/>
<path d="M6286 8051 c-4 -7 -5 -15 -2 -18 9 -9 19 4 14 18 -4 11 -6 11 -12 0z"/>
<path d="M905 8379 c-10 -15 1 -23 20 -15 9 3 13 10 10 16 -8 13 -22 13 -30
-1z"/>
<path d="M5475 7683 c-19 -10 -25 -18 -16 -21 7 -2 23 5 34 17 25 25 22 26
-18 4z"/>
<path d="M6610 6190 c0 -6 -4 -8 -10 -5 -5 3 -10 0 -10 -8 0 -8 7 -17 15 -21
8 -3 15 -1 15 4 0 6 7 10 16 10 9 0 14 6 12 13 -6 16 -38 22 -38 7z"/>
<path d="M6638 6153 c-31 -15 -37 -38 -13 -47 16 -6 79 46 69 57 -10 10 -25 7
-56 -10z"/>
<path d="M6733 6045 c0 -18 5 -25 18 -25 14 0 19 7 19 25 0 18 -5 25 -19 25
-13 0 -18 -7 -18 -25z"/>
<path d="M6700 6022 c0 -12 19 -26 26 -19 2 2 -2 10 -11 17 -9 8 -15 8 -15 2z"/>
<path d="M6727 5964 c-12 -12 -7 -38 12 -63 16 -21 20 -22 39 -10 12 8 22 21
22 31 0 9 8 19 18 22 9 2 0 3 -22 0 -27 -3 -42 0 -50 11 -6 9 -15 13 -19 9z"/>
<path d="M6322 5003 c2 -10 11 -19 21 -21 24 -5 21 15 -4 28 -18 10 -20 9 -17
-7z"/>
<path d="M1722 3516 c1 -10 8 -17 13 -17 15 1 12 24 -3 29 -9 3 -13 -2 -10
-12z"/>
<path d="M1506 3484 c-4 -15 -4 -29 -1 -32 8 -9 33 31 28 45 -8 21 -20 15 -27
-13z"/>
<path d="M1566 3454 c-4 -14 -4 -29 -1 -32 7 -7 35 30 32 42 -7 21 -25 15 -31
-10z"/>
<path d="M1656 3443 c-3 -7 -12 -13 -20 -13 -17 0 -77 -70 -70 -82 3 -4 -2
-11 -10 -14 -22 -8 -20 -27 4 -41 16 -11 21 -9 35 9 13 20 13 23 0 31 -25 13
-19 40 7 34 23 -6 58 16 58 36 0 6 10 21 21 33 l21 23 -20 -2 c-12 -1 -24 -7
-26 -14z"/>
<path d="M1475 3420 c-3 -5 -1 -10 4 -10 6 0 11 5 11 10 0 6 -2 10 -4 10 -3 0
-8 -4 -11 -10z"/>
<path d="M1512 3393 c2 -10 10 -18 18 -18 8 0 16 8 18 18 2 12 -3 17 -18 17
-15 0 -20 -5 -18 -17z"/>
<path d="M1440 3390 c0 -5 5 -10 10 -10 6 0 10 5 10 10 0 6 -4 10 -10 10 -5 0
-10 -4 -10 -10z"/>
<path d="M1460 3343 c0 -17 17 -25 40 -18 31 10 24 30 -10 30 -17 0 -30 -5
-30 -12z"/>
<path d="M3094 893 c28 -26 41 -33 44 -23 6 17 -43 60 -66 60 -12 0 -5 -11 22
-37z"/>
<path d="M4165 250 c3 -5 8 -10 11 -10 2 0 4 5 4 10 0 6 -5 10 -11 10 -5 0 -7
-4 -4 -10z"/>
</g>
</svg>
